<?xml version="1.0" standalone="no"?><!DOCTYPE svg PUBLIC "-//W3C//DTD SVG 1.1//EN" "http://www.w3.org/Graphics/SVG/1.1/DTD/svg11.dtd"><svg t="1718681394858" class="icon" viewBox="0 0 1142 1024" version="1.1" xmlns="http://www.w3.org/2000/svg" p-id="23639" xmlns:xlink="http://www.w3.org/1999/xlink" width="223.046875" height="200"><path d="M506.483351 1023.933327a8.889757 8.889757 0 0 1-8.823084-8.778635 8.889757 8.889757 0 0 1 8.823084-8.823084h369.369404a8.889757 8.889757 0 0 1 8.823084 8.823084 8.889757 8.889757 0 0 1-8.823084 8.778635z m-265.770399 0a8.889757 8.889757 0 0 1-8.823084-8.778635 8.889757 8.889757 0 0 1 8.823084-8.823084h222.799536a8.811972 8.811972 0 0 1 8.778635 8.823084 9.034216 9.034216 0 0 1-8.778635 8.778635z m424.196981-46.537878a8.811972 8.811972 0 0 1-8.823083-8.778635 8.811972 8.811972 0 0 1 8.823083-8.778635H924.5464a8.778635 8.778635 0 0 1 8.778635 8.778635 8.723074 8.723074 0 0 1-8.511943 8.778635z m-52.549576-8.778635a8.778635 8.778635 0 0 1 8.778635-8.823084 8.778635 8.778635 0 0 1 8.778635 8.823084 8.767523 8.767523 0 0 1-8.778635 8.778635 8.778635 8.778635 0 0 1-8.778635-8.789747z m-441.276427 8.778635a8.800859 8.800859 0 0 1-8.778635-8.778635 8.800859 8.800859 0 0 1 8.778635-8.778635h415.951732a8.800859 8.800859 0 0 1 8.778635 8.778635 9.067552 9.067552 0 0 1-8.778635 8.778635z m-84.452691-39.359399a8.889757 8.889757 0 0 1-8.823084-8.823084 8.889757 8.889757 0 0 1 8.823084-8.778635h98.398498a472.668381 472.668381 0 0 1-75.562935-130.012697 473.246215 473.246215 0 0 1-31.680872-171.005589 473.201767 473.201767 0 0 1 37.414765-185.218087 473.379562 473.379562 0 0 1 101.954401-151.325889 476.20206 476.20206 0 0 1 151.28144-102.132196 474.368547 474.368547 0 0 1 185.295874-37.359204 474.757474 474.757474 0 0 1 185.340321 37.359204 477.702206 477.702206 0 0 1 151.325889 102.098859 475.44643 475.44643 0 0 1 102.043299 151.325889 474.290762 474.290762 0 0 1 37.414765 185.262537 476.057601 476.057601 0 0 1-31.636423 171.005588 474.357435 474.357435 0 0 1-75.562935 130.012697h107.232694a8.889757 8.889757 0 0 1 8.823084 8.778635 9.023103 9.023103 0 0 1-8.823084 8.823084zM495.926764 431.37546l-1.411248 0.577834-0.133347 0.088898-0.311141 0.133346a13.61244 13.61244 0 0 1-2.22244 1.022322l-37.84814 19.501905c-34.058882 17.512821-58.28347 30.00293-81.30794 41.904092l-1.722391 0.788966-0.922312 0.533385-4.100401 2.077981-6.089483 3.133639-5.822791 2.955844-3.48923 1.76684c-2.822498 1.411249-5.644996 2.866947-8.467493 4.278195-1.11122 0.533385-2.333561 1.11122-3.478118 1.677942l-0.444487 0.25558c-0.611171 0.255581-1.189005 0.577834-1.76684 0.833415l-0.177795 0.088898-0.533385 0.266692-1.11122 0.522274-0.622283 0.35559a4.033727 4.033727 0 0 0-0.444488 0.222244l-0.177795 0.088897-0.266693 0.144459-0.566722 0.25558-0.755629 0.355591c-1.11122 0.566722-2.289112 1.177893-3.700361 1.844624a8.889757 8.889757 0 0 0-4.85603 7.945221v6.967347a8.578616 8.578616 0 0 0 3.933717 7.422947c0.088898 0.088898 0.133346 0.088898 0.177796 0.133346s0.088898 0 0.088897 0.088898 0.088898 0 0.133347 0.088897 0.088898 0 0.133346 0.088898c9.523152 11.112196 20.646461 24.091242 32.647633 38.203731l2.600253 3.044741 3.522567 4.100401 9.66761 11.289991c-1.811288 5.033825-3.578127 9.71206-5.167171 13.856909l-0.744517 2.033532c-0.133346 0.488937-0.311141 0.877864-0.444488 1.277903l-0.133346 0.25558a13.512431 13.512431 0 0 1-0.566722 1.455698l-0.35559 0.933424c-0.622283 1.622381-1.11122 3.078078-1.677942 4.544889l-1.11122 2.911395c-0.444488 1.11122-0.888976 2.333561-1.322351 3.522566l-0.488937 1.277903-0.177795 0.577834c-0.533385 1.3668-1.01121 2.778049-1.544595 4.1004l-9.923191 26.780393-4.444879 12.045621a8.889757 8.889757 0 0 0 4.322644 11.112197l16.857202 8.567503a9.478703 9.478703 0 0 0-1.411249 4.189298 1.655717 1.655717 0 0 1-0.088897 0.577834v0.177795a3.444781 3.444781 0 0 0 0 0.666732 18.257338 18.257338 0 0 0-0.133347 2.778049c0 2.878059 0 6.100596-0.088897 9.934304v12.412323l-0.444488 50.338249a15.123699 15.123699 0 0 0 9.667611 15.390392l16.501611 7.778537 13.056831 6.045035 10.634372 4.85603 1.233453 0.622283 3.700362 1.677941c2.911395 1.3668 5.789454 2.689152 8.645289 4.000391 4.055952 1.900186 8.467494 3.967054 14.301396 6.667318 3.833708 1.811288 7.278489 3.400332 11.023299 5.167171l7.23404 3.333659 0.700068 0.35559c0.788966 0.344478 1.544595 0.700068 2.222439 1.055659l1.455698 0.666732 0.966761 0.444488c21.490988 10.000977 39.526082 18.346236 55.238728 25.50249l25.635837 11.901162a8.378596 8.378596 0 0 0 3.700361 0.700069 8.434157 8.434157 0 0 0 3.578127-0.700069 7.922996 7.922996 0 0 0 3.178088 0.622283 7.522957 7.522957 0 0 0 3.444781-0.744517l1.277903-0.533385 0.666732-0.255581a1.01121 1.01121 0 0 0 0.35559-0.222244l0.222244-0.088897a5.256069 5.256069 0 0 0 0.966761-0.400039l0.088897-0.088898 32.22537-15.045914c9.934303-4.578225 20.124187-9.300908 30.180725-13.979143l11.201094-5.167171 15.668196-7.322937a6101.484737 6101.484737 0 0 0 39.226053-18.224002l15.557075-7.189591c5.156059-2.37801 10.32323-4.811581 15.490402-7.178479l5.200508-2.433571 4.722683-2.222439a14.445855 14.445855 0 0 0 9.089777-13.856909c-0.133346-16.934987-0.133346-34.236677-0.133347-50.916083v-25.980315a8.489718 8.489718 0 0 0-1.111219-4.333757l20.779807-10.145435a9.078664 9.078664 0 0 0 4.322644-11.467787l-31.769769-74.740632c1.811288-2.222439 3.578127-4.322644 5.556098-6.667318l1.022322-1.233453 0.744517-0.877864 2.866947-3.444781 2.300224-2.7336 6.967347-8.478606c2.644703-3.166976 5.167171-6.178381 7.589631-9.034215l1.900185-2.300225c2.955844-3.522566 5.733893-6.834001 8.334147-10.000977l10.72327-12.923484a9.123113 9.123113 0 0 0 2.033532-5.778342v-6.133932a8.95643 8.95643 0 0 0-4.722684-7.634079l-163.904895-87.441873a9.445367 9.445367 0 0 0-4.189298-1.01121 9.234235 9.234235 0 0 0-6.93401 3.166976l-51.482806 63.006153-49.327039-62.861694a8.811972 8.811972 0 0 0-7.100694-3.400332 8.578616 8.578616 0 0 0-3.822595 0.844527z m-267.359442 378.136927a22.76889 22.76889 0 0 0 22.713329 22.724442 22.713329 22.713329 0 0 0 22.679993-22.724442 22.713329 22.713329 0 0 0-22.679993-22.724441 22.780002 22.780002 0 0 0-22.746666 22.724441zM881.431078 663.698148a36.870267 36.870267 0 0 0 36.836931 36.83693 36.848043 36.848043 0 0 0 36.83693-36.83693 36.870267 36.870267 0 0 0-36.83693-36.825819 36.903604 36.903604 0 0 0-36.870268 36.825819z m-699.723888-74.296145l12.001172 11.956723a7.367386 7.367386 0 0 0 5.422752 2.289113 7.400723 7.400723 0 0 0 5.4672-2.289113 7.667415 7.667415 0 0 0 0-10.989962l-12.001172-11.945611 12.001172-12.001172a7.622967 7.622967 0 0 0 0-10.945513 7.778537 7.778537 0 0 0-5.4672-2.222439 7.778537 7.778537 0 0 0-5.422752 2.222439l-12.045621 11.956723-12.001172-11.956723a7.711864 7.711864 0 0 0-5.4672-2.289112 7.68964 7.68964 0 0 0-5.422752 2.289112 7.778537 7.778537 0 0 0-2.300225 5.478313 7.545181 7.545181 0 0 0 2.300225 5.4672l11.956723 12.001172-11.956723 11.945611a7.678528 7.678528 0 0 0 0 10.989962 7.511845 7.511845 0 0 0 5.422752 2.289113 7.534069 7.534069 0 0 0 5.4672-2.289113l12.001172-11.956723z m627.639071-240.134562l12.579006 12.579007a8.04523 8.04523 0 0 0 5.733893 2.37801 7.900772 7.900772 0 0 0 5.733893-2.37801 7.989669 7.989669 0 0 0 2.389123-5.745006 8.067455 8.067455 0 0 0-2.389123-5.745005l-12.612342-12.567894 12.612342-12.623455a8.056342 8.056342 0 0 0 2.389123-5.789455 7.845211 7.845211 0 0 0-2.389123-5.689444 7.778537 7.778537 0 0 0-5.644995-2.433571 8.234137 8.234137 0 0 0-5.822791 2.433571l-12.612343 12.623455-12.612343-12.623455a8.023006 8.023006 0 0 0-5.733893-2.433571 8.100791 8.100791 0 0 0-5.733893 2.433571 8.034118 8.034118 0 0 0-2.37801 5.689444 8.24525 8.24525 0 0 0 2.37801 5.789455l12.612343 12.623455-12.612343 12.567894a8.256362 8.256362 0 0 0-2.37801 5.745005 8.178576 8.178576 0 0 0 2.37801 5.745006 8.04523 8.04523 0 0 0 5.733893 2.37801 7.978557 7.978557 0 0 0 5.733893-2.37801l12.612343-12.579007z m259.514232 466.112186a36.848043 36.848043 0 0 1 36.83693-36.836931 36.792482 36.792482 0 0 1 36.836931 36.836931 36.848043 36.848043 0 0 1-36.836931 36.836931 36.736921 36.736921 0 0 1-36.881379-36.836931z m14.123601-0.133346a22.746666 22.746666 0 0 0 22.724442 22.713329 22.735554 22.735554 0 0 0 22.679992-22.713329 22.724441 22.724441 0 0 0-22.679992-22.679993 22.735554 22.735554 0 0 0-22.768891 22.679993z m-538.830398 30.925242l-13.05683-6.000586c-14.290284-6.489523-26.780393-12.223416-32.958774-15.17926l-2.22244-1.055659-2.866946-1.322351c-5.467201-2.522469-10.412128-4.811581-15.612636-7.156255l-2.522469-1.233453c-2.511356-1.189005-4.944927-2.333561-6.789552-3.178089l-0.488936-0.222244c-0.877864-0.444488-1.766839-0.833415-2.600254-1.233453l-1.189005-0.577835-0.700069-0.300029a260.025393 260.025393 0 0 1-10.889952-5.122722l-2.911395-1.322352-1.677942-0.744517c-2.511356-1.177893-5.078274-2.333561-7.634079-3.522566-0.622283-0.255581-1.233454-0.577834-1.855737-0.833415-0.922312-0.444488-1.900186-0.888976-2.866946-1.3668a126.94573 126.94573 0 0 1-4.055952-1.855737l-4.444878-2.07798-2.600254-1.277903-3.878157-1.766839-0.922312-0.433376-0.177795-0.088897c-10.589923-4.900479-22.635544-10.501025-34.447809-15.890441 0.266693-18.135104 0.400039-35.470131 0.533386-52.282884 0-3.03363 0-6.000586 0.133346-9.000879l138.535751 70.006837a9.234235 9.234235 0 0 0 4.011503 0.877863 7.400723 7.400723 0 0 0 3.266986-0.622283 8.778635 8.778635 0 0 0 5.078273-5.022712l7.88966-20.479778v90.275483z m24.446832-0.144459v-86.552897l6.000586 16.668295a8.345259 8.345259 0 0 0 5.122723 5.200508 8.889757 8.889757 0 0 0 3.44478 0.666731 8.111903 8.111903 0 0 0 3.789259-0.833414l140.480386-69.795705v11.612245c0 16.146021 0 32.769867 0.133346 49.193693-41.115126 19.2241-89.475404 41.69296-136.146629 63.217285l-22.757778 10.57881z m-331.287908-36.525789a14.06804 14.06804 0 0 1 14.034704-14.034704 14.079153 14.079153 0 0 1 14.079153 14.034704 14.06804 14.06804 0 0 1-14.079153 14.034704 14.06804 14.06804 0 0 1-14.123601-14.023592z m282.249786-61.939382l-151.903723-76.596369 1.811288-4.633786 9.934303-26.780393 0.666732-1.711278 0.222244-0.622283c0.222244-0.666732 0.488937-1.322351 0.71118-2.033532l0.30003-0.833415 0.177795-0.400039 0.533385-1.455698 0.177795-0.533385c0.266693-0.577834 0.477824-1.189005 0.700069-1.800176l0.088897-0.188907 0.222244-0.577834 0.788966-2.155766 0.488937-1.189005c0.477824-1.455698 1.11122-3.078078 1.677942-4.678235l0.622283-1.622381 0.744517-1.989083 0.35559-0.966761c0.266693-0.622283 0.477824-1.233454 0.744517-1.900185s0.400039-1.11122 0.577834-1.600157l0.177795-0.477824 0.488937-1.189005 0.444488-1.189005 0.444488-1.189005c0.255581-0.700068 0.522273-1.3668 0.744517-2.077981l152.081518 72.662652-23.957895 67.684387z m72.529305-0.533385l-0.477824-1.366801-0.400039-1.055658-0.444488-1.3668-0.177795-0.400039a23.180041 23.180041 0 0 0-0.444488-1.322352c-1.01121-2.866947-1.944634-5.745005-3.044742-9.034215l-0.133346-0.355591-0.222244-0.666731-0.711181-2.033532-0.133346-0.400039q-0.988985-3.044742-1.989083-5.945025l-0.133347-0.488937-0.400039-1.11122-1.544595-4.544888c-1.3668-4.055952-2.644703-7.778537-3.933718-11.645582l-2.466907-7.278488-1.11122-3.078079-0.622283-1.811288-0.266692-0.833414a638.062311 638.062311 0 0 1-4.100401-12.223416c39.437185-18.624041 85.419453-40.459507 121.067379-57.450055l32.225369-15.445953 26.913739 63.217285-157.50427 76.674154z m303.585203-83.474819a22.746666 22.746666 0 0 1 22.679992-22.724441 22.746666 22.746666 0 0 1 22.724442 22.724441 22.746666 22.746666 0 0 1-22.724442 22.724441 22.735554 22.735554 0 0 1-22.791114-22.713329z m-339.177568 2.778049l-150.014649-71.595881 149.647947-76.285227h0.088897l0.222244 0.233356a0.722293 0.722293 0 0 0 0.177796 0.133346 0.333366 0.333366 0 0 0 0.133346 0l31.858667 16.101573c5.378303 2.689152 10.812167 5.378303 16.19047 8.111903l0.222244 0.133346c6.356176 3.178088 12.001172 6.045035 17.290577 8.689738l1.500147 0.744517 9.31202 4.722684 3.478117 1.811288c15.557075 7.778537 31.11415 15.657085 46.282298 23.335612l5.911688 3.000293 8.889757 4.544888 9.300909 4.678235-24.446832 11.601133-16.234919 7.778537-0.35559 0.177795a19652.296947 19652.296947 0 0 1-107.56606 51.04943 4.378205 4.378205 0 0 1-0.877864 0.477824h-0.088897l-0.444488 0.30003a4.267083 4.267083 0 0 1-0.477825 0.222244z m-167.794164-82.808087c-6.57842-7.711864-12.223416-14.245836-17.123894-20.001953l-0.311142-0.344478-4.444878-5.300518-2.300225-2.689151-4.811581-5.556098a456.088984 456.088984 0 0 0-4.933815-5.789455l-5.167171-6.089483c-2.289112-2.644703-4.544888-5.300518-6.834001-7.989669 0.888976-0.388927 1.589044-0.744517 2.300225-1.11122l0.700068-0.400039c1.3668-0.622283 2.689152-1.322351 3.878157-1.944634l0.400039-0.222244 0.133346-0.088898h0.088898c1.11122-0.533385 2.122429-1.022322 3.044741-1.511258l0.533386-0.255581 0.400039-0.222244c1.233454-0.577834 2.37801-1.11122 3.478117-1.766839l2.300225-1.11122c9.045328-4.444879 15.357055-7.667415 20.957602-10.634372l2.37801-1.177892a9983.019349 9983.019349 0 0 0 78.974379-40.637302l35.158989-18.090656 43.593146 55.560982-152.303762 77.474232zM37.293087 462.689629l-12.001172-12.001172-11.956723 12.001172a7.778537 7.778537 0 0 1-10.989962 0 7.778537 7.778537 0 0 1 0-10.989962l12.001172-11.956723-12.001172-11.99006a7.700752 7.700752 0 0 1 0-10.945513 7.778537 7.778537 0 0 1 10.989962 0l11.956723 11.956723 12.001172-11.956723a7.94522 7.94522 0 0 1 10.934401 0 7.634079 7.634079 0 0 1 0 10.945513l-11.956723 11.99006 11.956723 11.956723a7.678528 7.678528 0 0 1 0 10.989962 7.711864 7.711864 0 0 1-5.4672 2.278 7.711864 7.711864 0 0 1-5.522762-2.266888zM952.62692 185.573678l-16.857202-16.812753-16.812753 16.812753a10.87884 10.87884 0 0 1-15.312607 0 10.87884 10.87884 0 0 1 0-15.301494l16.857202-16.812753-16.857202-16.812753a10.889952 10.889952 0 0 1 0-15.312607 10.901065 10.901065 0 0 1 15.312607 0l16.812753 16.812753 16.857202-16.812753a10.845504 10.845504 0 0 1 15.268157 0 10.812167 10.812167 0 0 1 0 15.312607l-16.812753 16.812753 16.812753 16.812753a10.801055 10.801055 0 0 1 0 15.301494 10.723269 10.723269 0 0 1-7.634079 3.144752 10.723269 10.723269 0 0 1-7.700752-3.155864zM558.510654 40.903995l-10.234333-10.189884-10.189884 10.189884a6.600645 6.600645 0 0 1-9.31202 0 6.667318 6.667318 0 0 1 0-9.300909l10.234332-10.200996-10.234332-10.189884a6.667318 6.667318 0 0 1 0-9.31202 6.667318 6.667318 0 0 1 9.31202 0l10.189884 10.200996 10.234333-10.200996a6.567308 6.567308 0 0 1 9.256459 0 6.600645 6.600645 0 0 1 0 9.31202l-10.189884 10.189884 10.189884 10.200996a6.589532 6.589532 0 0 1 0 9.300909 6.456186 6.456186 0 0 1-4.633785 1.922409 6.456186 6.456186 0 0 1-4.678235-1.911297z" fill="#5D9BE7" p-id="23640"></path></svg>