<?xml version="1.0" standalone="no"?><!DOCTYPE svg PUBLIC "-//W3C//DTD SVG 1.1//EN" "http://www.w3.org/Graphics/SVG/1.1/DTD/svg11.dtd"><svg t="1718680988224" class="icon" viewBox="0 0 1029 1024" version="1.1" xmlns="http://www.w3.org/2000/svg" p-id="19940" xmlns:xlink="http://www.w3.org/1999/xlink" width="200.9765625" height="200"><path d="M154.790698 640c0 202.210233 162.595721 366.139535 363.16279 366.139535 200.573023 0 363.162791-163.929302 363.162791-366.139535C881.116279 437.783814 718.526512 273.860465 517.953488 273.860465c-200.56707 0-363.162791 163.923349-363.16279 366.139535z" fill="#5E9CE7" p-id="19941"></path><path d="M153.981023 699.046698c8.168186 7.275163 23.147163 2.726698 33.458605-10.150698 10.305488-12.883349 12.043907-29.219721 3.881674-36.494884-8.168186-7.275163-23.147163-2.738605-33.458604 10.144744-10.305488 12.883349-12.043907 29.225674-3.881675 36.494884z" fill="#B1B4B5" p-id="19942"></path><path d="M153.826233 699.534884c5.209302 4.119814 13.609674 3.953116 22.039814-0.446512 8.43014-4.387721 15.610047-12.335628 18.82493-20.837209 3.226791-8.513488 1.994419-16.282791-3.214884-20.396651-5.209302-4.11386-13.609674-3.941209-22.039814 0.446511-8.43014 4.393674-15.610047 12.341581-18.830884 20.849117-3.214884 8.501581-1.988465 16.276837 3.220838 20.390697z" fill="#FFFFFF" p-id="19943"></path><path d="M341.629023 966.02493c24.980837 17.336558 56.71293 21.140837 83.229768 9.984 26.528744-11.156837 43.817674-35.584 45.353674-64.077395 1.541953-28.487442-12.901209-56.718884-37.888-74.049488-24.980837-17.336558-56.706977-21.140837-83.229767-9.984-26.522791 11.162791-43.811721 35.584-45.353675 64.077395-1.541953 28.487442 12.907163 56.718884 37.888 74.049488z" fill="#B1B4B5" p-id="19944"></path><path d="M351.857116 949.12893c23.426977 16.169674 52.914605 19.842977 77.341768 9.644651 24.427163-10.204279 40.084837-32.726326 41.079069-59.088372 0.988279-26.368-12.835721-52.563349-36.268651-68.721116-23.43293-16.163721-52.926512-19.842977-77.347721-9.644651-24.427163 10.204279-40.084837 32.732279-41.079069 59.094325-0.988279 26.362047 12.835721 52.557395 36.274604 68.715163z" fill="#FFFFFF" p-id="19945"></path><path d="M399.139721 616.72186c1.315721 10.561488 7.584744 19.646512 16.461395 23.843721 8.870698 4.191256 18.979721 2.857674 26.534698-3.512558 7.549023-6.370233 11.389023-16.794791 10.073302-27.362232-1.315721-10.555535-7.590698-19.646512-16.455442-23.837768-8.870698-4.191256-18.985674-2.857674-26.534697 3.512558-7.56093 6.370233-11.394977 16.794791-10.079256 27.362233z" fill="#B1B4B5" p-id="19946"></path><path d="M411.028837 613.328372c1.190698 9.501767 6.79293 17.699721 14.687256 21.492093 7.894326 3.804279 16.87814 2.619535 23.575814-3.08986 6.697674-5.709395 10.085209-15.080186 8.888558-24.587907-1.190698-9.507721-6.79293-17.705674-14.693209-21.504-7.888372-3.792372-16.87814-2.619535-23.575814 3.095814-6.691721 5.703442-10.085209 15.080186-8.882605 24.587907z" fill="#FFFFFF" p-id="19947"></path><path d="M270.687256 509.261395c12.293953 12.27014 33.012093 11.448558 46.276465-1.833674 13.258419-13.29414 14.038326-34.006326 1.744372-46.276465-12.299907-12.264186-33.012093-11.442605-46.276465 1.845581-13.258419 13.276279-14.038326 33.994419-1.744372 46.270512z" fill="#B1B4B5" p-id="19948"></path><path d="M269.663256 510.279442c7.144186 7.132279 17.943814 9.501767 28.338604 6.227349a34.113488 34.113488 0 0 0 22.057675-22.099349c3.250605-10.400744 0.863256-21.194419-6.28093-28.320744-7.144186-7.126326-17.943814-9.495814-28.338605-6.221396a34.089674 34.089674 0 0 0-22.057674 22.099349c-3.256558 10.400744-0.857302 21.194419 6.28093 28.314791z" fill="#FFFFFF" p-id="19949"></path><path d="M453.51293 469.414698c1.863442 2.16707 5.566512 0.339349 8.275349-4.096 2.714791-4.423442 3.393488-9.769674 1.536-11.942698-1.863442-2.16707-5.566512-0.339349-8.275349 4.096-2.714791 4.423442-3.393488 9.769674-1.536 11.942698z" fill="#B1B4B5" p-id="19950"></path><path d="M453.477209 475.403907c1.190698 1.375256 3.226791 1.113302 5.346233-0.684651 2.119442-1.803907 4.006698-4.869953 4.941395-8.05507 0.934698-3.179163 0.779907-5.989209-0.404837-7.370419-1.190698-1.375256-3.226791-1.119256-5.346233 0.684652-2.125395 1.803907-4.006698 4.869953-4.941395 8.055069-0.934698 3.179163-0.779907 5.989209 0.404837 7.370419z" fill="#FFFFFF" p-id="19951"></path><path d="M286.815256 719.461209c1.857488 2.16707 5.566512 0.339349 8.275349-4.090046 2.708837-4.429395 3.399442-9.775628 1.536-11.948651-1.857488-2.16707-5.566512-0.339349-8.275349 4.090046-2.708837 4.429395-3.393488 9.775628-1.536 11.948651z" fill="#B1B4B5" p-id="19952"></path><path d="M286.779535 719.490977c1.839628 2.137302 5.536744 0.256 8.263442-4.185303 2.726698-4.447256 3.453023-9.781581 1.619349-11.918883-1.833674-2.125395-5.536744-0.250047-8.263442 4.197209-2.726698 4.447256-3.453023 9.775628-1.619349 11.906977z" fill="#FFFFFF" p-id="19953"></path><path d="M514.994605 1024C303.276651 1024 130.976744 851.735814 130.976744 640 130.976744 428.276093 303.270698 256 514.994605 256S898.976744 428.258233 898.976744 640c0 211.753674-172.252279 384-383.982139 384z m0-728.147349c-189.743628 0-344.111628 154.38586-344.111628 344.153302 0 189.773395 154.356093 344.141395 344.111628 344.141396 189.755535 0 344.135442-154.373953 344.135442-344.141396s-154.373953-344.153302-344.135442-344.153302z" fill="#D7D7D7" p-id="19954"></path><path d="M641.28 795.064558c3.018419 0.315535 5.899907-3.72093 6.453581-9.013581 0.553674-5.286698-1.434791-9.829209-4.447255-10.144744-3.012465-0.315535-5.899907 3.726884-6.453582 9.013581-0.547721 5.286698 1.440744 9.829209 4.447256 10.144744z" fill="#B1B4B5" p-id="19955"></path><path d="M211.491721 904.453953c-105.186233 0-184.730791-25.48093-205.937116-84.974139-22.218419-62.273488 22.676837-138.400744 126.333023-214.379163a20.003721 20.003721 0 0 1 27.92186 4.256744 19.902512 19.902512 0 0 1-4.274604 27.862326c-86.92093 63.702326-127.869023 125.291163-112.330419 168.930232 26.254884 73.662512 249.278512 86.90307 527.276651-11.746232 128.952558-45.740651 243.57507-106.448372 322.756465-170.859163 72.829023-59.237209 106.900837-114.723721 93.517396-152.242605-12.466605-34.774326-82.902326-53.694512-193.92893-51.342883h-0.398884a19.962047 19.962047 0 0 1-19.717954-19.741768 19.962047 19.962047 0 0 1 19.325024-20.12279c134.786977-2.583814 213.039628 23.56986 232.394418 77.859721 19.664372 55.147163-17.949767 124.916093-105.900651 196.482976-82.67014 67.244651-201.525581 130.238512-334.645581 177.533024-127.333209 45.186977-263.578791 72.471814-372.390698 72.48372z m94.976-571.963534a19.956093 19.956093 0 0 1-16.860279-9.210047l-22.76614-35.619721a19.914419 19.914419 0 0 1-1.04186-20.027535 19.997767 19.997767 0 1 1 34.720744-1.446697l22.807814 35.613767a19.902512 19.902512 0 0 1 0.696558 20.337116 20.003721 20.003721 0 0 1-17.556837 10.35907z" fill="#C6C5C5" p-id="19956"></path><path d="M215.748465 221.136372c-16.294698 0-30.981953-9.525581-37.215256-24.147349-6.233302-14.621767-2.792186-31.452279 8.727814-42.644837s28.838698-14.538419 43.889117-8.477767C246.194605 151.92707 256 166.191628 256 182.021953c-0.035721 21.587349-18.03907 39.078698-40.251535 39.114419z m-48.574512 58.671628c-42.984186-0.041674-77.812093-33.881302-77.865674-75.645023a19.408372 19.408372 0 0 1 9.900651-17.312744 20.622884 20.622884 0 0 1 20.384744 0 19.414326 19.414326 0 0 1 9.894698 17.312744c0.029767 20.212093 16.884093 36.584186 37.685581 36.608a20.229953 20.229953 0 0 1 17.818791 9.614883 19.051163 19.051163 0 0 1 0 19.807256 20.229953 20.229953 0 0 1-17.818791 9.614884z" fill="#F7C059" p-id="19957"></path><path d="M165.834419 344.516465C81.146047 344.421209 12.502326 275.628651 12.383256 190.714047a20.116837 20.116837 0 0 1 9.870884-17.824745 19.997767 19.997767 0 0 1 20.337116 0 20.110884 20.110884 0 0 1 9.876837 17.824745c0.059535 62.749767 50.777302 113.604465 113.354419 113.664a20.033488 20.033488 0 0 1 17.783069 9.900651 20.140651 20.140651 0 0 1 0 20.390697 20.033488 20.033488 0 0 1-17.777116 9.894698v-0.047628z m145.664-156.654139a20.098977 20.098977 0 0 1-19.545303-24.647442c4.685395-20.271628-7.900279-40.513488-28.118325-45.216744a20.051349 20.051349 0 0 1-14.973024-13.675163 20.122791 20.122791 0 0 1 4.566326-19.777489 19.991814 19.991814 0 0 1 19.450047-5.679628 77.597767 77.597767 0 0 1 48.384 34.637396 78.002605 78.002605 0 0 1 9.728 58.814511 20.039442 20.039442 0 0 1-19.491721 15.538605z" fill="#F7C059" p-id="19958"></path><path d="M374.653023 201.751814a18.991628 18.991628 0 0 1-4.560372-0.535814 20.009674 20.009674 0 0 1-12.490418-8.96 20.122791 20.122791 0 0 1-2.494512-15.199256 113.854512 113.854512 0 0 0-14.205023-85.807628 113.294884 113.294884 0 0 0-70.578605-50.574883 20.10493 20.10493 0 0 1-14.907535-24.093768A20.051349 20.051349 0 0 1 279.361488 1.500279a153.385674 153.385674 0 0 1 95.553489 68.482977 154.106047 154.106047 0 0 1 19.211907 116.176372 20.045395 20.045395 0 0 1-19.479814 15.592186z" fill="#F7C059" p-id="19959"></path><path d="M544.261953 354.113488c13.383442 9.620837 30.380651 11.740279 44.591628 5.536745 14.210977-6.191628 23.468651-19.765581 24.290233-35.595907 0.833488-15.830326-6.906047-31.511814-20.295442-41.138605-13.377488-9.632744-30.374698-11.746233-44.585674-5.542698-14.210977 6.191628-23.468651 19.765581-24.290233 35.595907-0.833488 15.830326 6.906047 31.511814 20.289488 41.138605z" fill="#B1B4B5" p-id="19960"></path><path d="M555.180651 348.475535c19.43814 14.09786 45.181023 10.775814 57.504744-7.418047 12.323721-18.19386 6.548837-44.365395-12.889302-58.463255-19.43814-14.09786-45.186977-10.775814-57.510698 7.418046-12.311814 18.19386-6.542884 44.371349 12.895256 58.463256z" fill="#FFFFFF" p-id="19961"></path><path d="M165.590326 762.046512a19.973953 19.973953 0 0 1-19.170233-14.336A383.535628 383.535628 0 0 1 130.976744 639.809488C130.976744 428.145116 303.580279 256 515.738791 256c181.843349 0 340.36093 128.756093 376.897488 306.187907a19.920372 19.920372 0 0 1-15.568372 23.391256 19.968 19.968 0 0 1-23.546047-15.383814c-32.744186-158.99386-174.812279-274.420093-337.783069-274.420093-190.136558 0-344.826047 154.302512-344.826047 343.974697a343.557953 343.557953 0 0 0 13.800186 96.726326 19.878698 19.878698 0 0 1-3.19107 17.533023 19.979907 19.979907 0 0 1-15.979162 7.965768l0.047628 0.071442z" fill="#D7D7D7" p-id="19962"></path><path d="M813.829953 599.242419c9.436279 15.282605 20.777674 26.957395 29.737675 30.624744 8.96 3.673302 14.181209-1.214512 13.70493-12.823814-0.476279-11.609302-6.590512-28.171907-16.032744-43.454512-9.436279-15.276651-20.777674-26.951442-29.737674-30.624744-8.954047-3.667349-14.181209 1.220465-13.704931 12.829767 0.476279 11.609302 6.590512 28.171907 16.032744 43.448559z" fill="#B1B4B5" p-id="19963"></path><path d="M817.949767 607.577302c13.067907 21.99814 29.279256 34.351628 36.21507 27.600372 6.941767-6.751256 1.970605-30.065116-11.091349-52.051348-13.061953-22.004093-29.285209-34.357581-36.221023-27.606326-6.935814 6.751256-1.964651 30.065116 11.097302 52.057302z" fill="#FFFFFF" p-id="19964"></path><path d="M706.619535 853.74214c7.132279 9.466047 22.593488 12.085581 40.543256 6.870325 17.955721-5.215256 35.679256-17.479442 46.496744-32.160744 10.817488-14.687256 13.091721-29.565023 5.953488-39.03107-7.144186-9.466047-22.593488-12.085581-40.543256-6.870325-17.955721 5.215256-35.679256 17.473488-46.496744 32.160744-10.817488 14.687256-13.091721 29.55907-5.953488 39.03107z" fill="#B1B4B5" p-id="19965"></path><path d="M711.959814 865.940837c9.543442 14.443163 35.70307 11.609302 58.433488-6.310697 22.736372-17.931907 33.422884-44.162977 23.885396-58.594233-9.549395-14.443163-35.709023-11.609302-58.445396 6.310698-22.730419 17.931907-33.422884 44.157023-23.873488 58.594232z" fill="#FFFFFF" p-id="19966"></path><path d="M708.286512 708.465116c6.388093 0.059535 12.317767-3.85786 15.562418-10.269767a23.879442 23.879442 0 0 0 0.166698-20.837209c-3.137488-6.477395-8.995721-10.501953-15.377861-10.567442-6.38214-0.059535-12.30586 3.851907-15.556465 10.269767a23.879442 23.879442 0 0 0-0.166697 20.837209c3.131535 6.477395 8.995721 10.501953 15.37786 10.567442z" fill="#B1B4B5" p-id="19967"></path><path d="M705.339535 708.465116c5.316465 0.053581 10.263814-3.304186 12.966698-8.811163a20.980093 20.980093 0 0 0 0.142883-17.854511c-2.613581-5.548651-7.501395-9.001674-12.81786-9.049302-5.310512-0.053581-10.25786 3.304186-12.960744 8.799255a20.986047 20.986047 0 0 0-0.142884 17.860465c2.613581 5.548651 7.495442 9.001674 12.811907 9.049303z" fill="#FFFFFF" p-id="19968"></path><path d="M670.458047 527.425488c4.221023 3.750698 11.389023 3.137488 18.813023-1.607441s13.96093-12.889302 17.163907-21.384931c3.20893-8.483721 2.57786-16.014884-1.643163-19.765581-4.21507-3.750698-11.38307-3.137488-18.813023 1.607442-7.418047 4.74493-13.96093 12.889302-17.157954 21.373023-3.20893 8.495628-2.57786 16.032744 1.63721 19.777488z" fill="#B1B4B5" p-id="19969"></path><path d="M675.780465 527.812465c3.560186 3.214884 9.674419 2.613581 16.038698-1.595535 6.370233-4.203163 12.026047-11.365209 14.824186-18.789209 2.810047-7.418047 2.345674-13.978791-1.214512-17.193674s-9.674419-2.607628-16.038697 1.595534c-6.370233 4.203163-12.026047 11.371163-14.824187 18.78921-2.810047 7.424-2.345674 13.978791 1.220466 17.193674z" fill="#FFFFFF" p-id="19970"></path><path d="M602.356093 944.354233c12.871442 4.346047 25.492837 2.208744 28.201674-4.762791 2.702884-6.971535-5.536744-16.151814-18.396279-20.497861-12.871442-4.346047-25.498791-2.220651-28.207628 4.750884-2.702884 6.983442 5.536744 16.157767 18.402233 20.509768z" fill="#B1B4B5" p-id="19971"></path><path d="M602.445395 950.206512c8.334884 2.869581 16.949581 3.131535 22.599442 0.684651 5.655814-2.44093 7.495442-7.227535 4.810419-12.538047-2.67907-5.310512-9.460093-10.347163-17.789023-13.216744-8.334884-2.863628-16.949581-3.125581-22.605396-0.678698-5.655814 2.446884-7.489488 7.227535-4.804465 12.538047 2.67907 5.310512 9.460093 10.347163 17.789023 13.216744z" fill="#FFFFFF" p-id="19972"></path></svg>