<?xml version="1.0" standalone="no"?><!DOCTYPE svg PUBLIC "-//W3C//DTD SVG 1.1//EN" "http://www.w3.org/Graphics/SVG/1.1/DTD/svg11.dtd"><svg t="1718681407040" class="icon" viewBox="0 0 1024 1024" version="1.1" xmlns="http://www.w3.org/2000/svg" p-id="23788" xmlns:xlink="http://www.w3.org/1999/xlink" width="200" height="200"><path d="M462.39744 658.059947H180.609707c-26.350933 0-47.714987-21.36064-47.714987-47.711574V257.501867c0-26.350933 21.364053-47.70816 47.714987-47.70816h281.787733c26.350933 0 47.711573 21.36064 47.711573 47.70816v352.84992c0 26.350933-21.36064 47.711573-47.711573 47.711573" fill="#DDDDDD" p-id="23789"></path><path d="M102.4 610.761387c159.563093 43.984213 378.606933 15.970987 378.606933 15.970986V241.117867H161.9968S192.43008 544.249173 102.4 610.761387" fill="#FFFFFF" p-id="23790"></path><path d="M415.573333 182.545067h-25.982293v-7.318187a28.320427 28.320427 0 0 0-28.320427-28.320427H281.73312a28.317013 28.317013 0 0 0-28.320427 28.320427v7.3216H227.4304a16.738987 16.738987 0 0 0-16.738987 16.738987v40.659626a16.735573 16.735573 0 0 0 16.738987 16.738987h188.142933a16.735573 16.735573 0 0 0 16.738987-16.738987V199.287467a16.738987 16.738987 0 0 0-16.738987-16.738987" fill="#10B691" p-id="23791"></path><path d="M427.001173 500.394667c0-54.79424-44.42112-99.21536-99.21536-99.21536S228.570453 445.600427 228.570453 500.394667c0 54.797653 44.42112 99.21536 99.21536 99.21536s99.21536-44.417707 99.21536-99.21536" fill="#333333" p-id="23792"></path><path d="M414.43328 494.114133c0-51.326293-41.608533-92.934827-92.931413-92.934826-51.326293 0-92.934827 41.608533-92.934827 92.931413 0 51.326293 41.608533 92.934827 92.934827 92.934827s92.931413-41.608533 92.931413-92.934827" fill="#56E8C4" p-id="23793"></path><path d="M422.621867 318.614187H232.946347a12.322133 12.322133 0 1 1 0-24.644267h189.678933a12.322133 12.322133 0 1 1 0 24.644267" fill="#DFE3E5" p-id="23794"></path><path d="M429.81376 357.8368H225.757867a5.133653 5.133653 0 0 1 0-10.263893h204.059306a5.133653 5.133653 0 0 1 0 10.263893" fill="#31333A" p-id="23795"></path><path d="M360.308053 166.4h-29.934933a4.77184 4.77184 0 1 1 0-9.547093h29.934933a4.775253 4.775253 0 0 1 0 9.547093" fill="#B1EBDE" p-id="23796"></path><path d="M304.121173 531.213653c-0.249173-10.001067 6.761813-17.2032 16.759467-17.455786 9.99424-0.249173 17.3568 6.601387 17.605973 16.59904 0.24576 9.99424-6.754987 17.517227-16.749226 17.7664-9.997653 0.249173-17.36704-6.915413-17.616214-16.909654m24.077654-62.337706c-0.136533-5.62176-4.881067-7.693653-9.56416-7.5776-5.9392 0.146773-9.772373 3.058347-14.209707 6.918826l-15.018667-13.06624c7.43424-8.942933 18.070187-15.141547 30.562987-15.458986 18.117973-0.443733 33.31072 6.987093 33.764693 25.10848 0.50176 20.309333-23.81824 22.787413-21.828266 39.932586l-23.432534 0.580267c-3.62496-20.227413 19.974827-26.443093 19.729067-36.437333" fill="#FFFFFF" p-id="23797"></path><path d="M777.270613 587.922773s60.689067-81.711787 126.14656-66.966186c47.793493 10.769067-12.6464 36.693333-30.242133 47.803733-18.664107 11.789653-40.98048 39.768747-40.98048 39.768747" fill="#10B691" p-id="23798"></path><path d="M509.057707 591.209813s-67.147093-76.4928-131.18464-56.459946c-46.759253 14.626133 15.59552 35.536213 34.03776 45.17888 19.561813 10.226347 44.086613 36.293973 44.086613 36.293973" fill="#10B691" p-id="23799"></path><path d="M174.58176 360.055467l5.5296 21.394773 21.398187 5.5296-21.398187 5.5296-5.5296 21.398187-5.5296-21.398187-21.4016-5.5296 21.4016-5.5296z" fill="#333333" p-id="23800"></path><path d="M148.81792 122.88l7.959893 30.798507 30.80192 7.963306-30.80192 7.95648-7.959893 30.80192-7.959893-30.80192L110.056107 161.641813l30.80192-7.963306z" fill="#333333" p-id="23801"></path><path d="M849.353387 874.533547c0 15.62624-93.289813 28.289707-208.37376 28.289706-115.083947 0-208.37376-12.663467-208.37376-28.289706s93.289813-28.289707 208.37376-28.289707c115.083947 0 208.37376 12.663467 208.37376 28.289707" fill="#DFE3E5" p-id="23802"></path><path d="M523.342507 745.66656s-19.8656 123.221333 15.090346 128.72704c28.91776 4.560213 42.902187-103.980373 42.902187-103.980373" fill="#10B691" p-id="23803"></path><path d="M758.62016 745.66656s19.858773 123.221333-15.09376 128.72704c-28.91776 4.560213-42.902187-103.980373-42.902187-103.980373" fill="#10B691" p-id="23804"></path><path d="M797.023573 459.851093c0-86.17984-69.864107-156.040533-156.043946-156.040533s-156.040533 69.860693-156.040534 156.040533a158.211413 158.211413 0 0 1-19.933866 77.042347c-16.800427 30.13632-26.084693 65.030827-25.306454 102.161067 2.2528 107.021653 89.45664 194.44736 196.478294 196.939093 113.384107 2.638507 206.127787-88.48384 206.127786-201.270613 0-35.6352-9.2672-69.096107-25.511253-98.126507-13.1072-23.422293-19.770027-49.902933-19.770027-76.745387" fill="#10B691" p-id="23805"></path><path d="M797.023573 445.12256c0-86.17984-69.864107-156.043947-156.043946-156.043947s-156.040533 69.864107-156.040534 156.043947a158.211413 158.211413 0 0 1-19.933866 77.042347c-16.800427 30.13632-26.084693 65.030827-25.306454 102.157653 2.2528 107.025067 89.45664 194.450773 196.478294 196.939093 113.384107 2.64192 206.127787-88.48384 206.127786-201.2672 0-35.6352-9.2672-69.096107-25.511253-98.126506-13.1072-23.422293-19.770027-49.902933-19.770027-76.745387" fill="#FDF6A2" p-id="23806"></path><path d="M602.620587 427.332267c0 7.809707-6.638933 14.14144-14.824107 14.14144-8.188587 0-14.824107-6.331733-14.824107-14.14144 0-7.816533 6.63552-14.144853 14.824107-14.144854 8.185173 0 14.824107 6.331733 14.824107 14.144854" fill="#000000" p-id="23807"></path><path d="M585.97376 424.67328c0 2.33472-1.979733 4.22912-4.427093 4.22912-2.450773 0-4.430507-1.8944-4.430507-4.22912s1.979733-4.225707 4.430507-4.225707c2.44736 0 4.427093 1.890987 4.427093 4.225707" fill="#FFFFFF" p-id="23808"></path><path d="M698.528427 427.332267c0 7.809707-6.63552 14.14144-14.820694 14.14144-8.188587 0-14.824107-6.331733-14.824106-14.14144 0-7.816533 6.63552-14.144853 14.824106-14.144854 8.185173 0 14.820693 6.331733 14.820694 14.144854" fill="#000000" p-id="23809"></path><path d="M681.888427 424.67328c0 2.33472-1.98656 4.22912-4.43392 4.22912s-4.430507-1.8944-4.430507-4.22912 1.983147-4.225707 4.430507-4.225707c2.44736 0 4.43392 1.890987 4.43392 4.225707" fill="#FFFFFF" p-id="23810"></path><path d="M732.433067 639.020373c0 48.192853-40.946347 87.258453-91.45344 87.258454-50.507093 0-91.450027-39.0656-91.450027-87.258454 0-48.18944 40.942933-87.25504 91.450027-87.25504 50.507093 0 91.45344 39.0656 91.45344 87.25504" fill="#F0A81A" p-id="23811"></path><path d="M710.621867 636.245333c0 48.186027-19.135147 90.033493-69.64224 90.033494-50.507093 0-91.45344-39.0656-91.45344-87.258454 0-48.18944 40.946347-87.25504 91.45344-87.25504 50.507093 0 69.64224 36.283733 69.64224 84.48" fill="#FFC35B" p-id="23812"></path><path d="M585.97376 475.559253c0 5.30432-9.250133 9.601707-20.67456 9.601707-11.4176 0-20.67456-4.3008-20.67456-9.601707 0-5.300907 9.25696-9.598293 20.67456-9.598293 11.421013 0 20.67456 4.3008 20.67456 9.598293M723.237547 475.559253c0 5.30432-9.25696 9.601707-20.67456 9.601707-11.421013 0-20.67456-4.3008-20.67456-9.601707 0-5.300907 9.253547-9.598293 20.67456-9.598293 11.4176 0 20.67456 4.3008 20.67456 9.598293" fill="#FCB5A4" p-id="23813"></path><path d="M596.49024 588.690773c5.358933 3.095893 5.812907 12.346027 1.010347 20.66432-4.80256 8.31488-13.038933 12.547413-18.397867 9.454934-5.358933-3.095893-5.812907-12.346027-1.010347-20.66432 4.799147-8.31488 13.038933-12.547413 18.397867-9.454934" fill="#FFDEAE" p-id="23814"></path><path d="M615.461547 191.808853a11.516587 11.516587 0 1 1-23.033174 0 11.516587 11.516587 0 0 1 23.033174 0M656.267947 191.808853a11.516587 11.516587 0 1 1-23.036587 0 11.516587 11.516587 0 0 1 23.036587 0M697.074347 191.808853a11.52 11.52 0 1 1-23.04-0.003413 11.52 11.52 0 0 1 23.04 0.003413M737.880747 191.808853a11.52 11.52 0 1 1-23.04-0.003413 11.52 11.52 0 0 1 23.04 0.003413M778.683733 191.808853a11.52 11.52 0 1 1-23.04-0.003413 11.52 11.52 0 0 1 23.04 0.003413M819.490133 191.808853a11.52 11.52 0 1 1-23.04-0.003413 11.52 11.52 0 0 1 23.04 0.003413" fill="#333333" p-id="23815"></path></svg>