<?xml version="1.0" standalone="no"?><!DOCTYPE svg PUBLIC "-//W3C//DTD SVG 1.1//EN" "http://www.w3.org/Graphics/SVG/1.1/DTD/svg11.dtd"><svg t="1718545492115" class="icon" viewBox="0 0 1433 1024" version="1.1" xmlns="http://www.w3.org/2000/svg" p-id="18541" xmlns:xlink="http://www.w3.org/1999/xlink" width="279.8828125" height="200"><path d="M705.625043 1024c199.795757 0 361.765843-20.293009 361.765844-45.332035 0-25.030122-161.970087-45.32313-361.765844-45.32313s-361.756939 20.293009-361.756939 45.32313c0 25.039026 161.970087 45.332035 361.756939 45.332035z" fill="#3F3D56" p-id="18542"></path><path d="M1317.585252 591.097322l-139.851687 66.088069 123.770435-92.418226a697.69127 697.69127 0 0 0-67.575096-88.794156L627.409252 626.501009l547.857809-208.682296a698.759791 698.759791 0 0 0-79.560348-60.549565L171.524452 505.91833a690.977391 690.977391 0 0 0-151.694469 431.611548H1410.982957a690.487652 690.487652 0 0 0-93.397705-346.432556zM1020.064278 314.359096a693.559652 693.559652 0 0 0-304.662261-70.005983c-214.861913 0-406.964313 97.28-534.554713 250.140939 218.485983-47.807443 598.906435-130.555548 839.216974-180.134956z" fill="#F2F2F2" p-id="18543"></path><path d="M1156.888487 381.150609a20.82727 20.82727 0 0 0 20.845078-20.809461 20.82727 20.82727 0 0 0-20.845078-20.809461 20.82727 20.82727 0 0 0-20.836174 20.809461 20.82727 20.82727 0 0 0 20.836174 20.809461zM1118.323757 384.88153a14.60313 14.60313 0 1 0 0-29.20626 14.60313 14.60313 0 1 0 0 29.20626zM170.322365 459.063652a43.613496 43.613496 0 0 0 43.640209-43.577878 43.613496 43.613496 0 0 0-43.640209-43.586783 43.613496 43.613496 0 0 0-43.649113 43.586783 43.613496 43.613496 0 0 0 43.649113 43.577878zM89.542122 466.872765a30.595339 30.595339 0 0 0 30.622052-30.568626 30.595339 30.595339 0 0 0-30.622052-30.57753A30.595339 30.595339 0 0 0 58.928974 436.313043a30.595339 30.595339 0 0 0 30.613148 30.568627z" fill="#3366FF" opacity=".4" p-id="18544"></path><path d="M1429.147826 936.131896H4.452174v2.787061h1424.695652v-2.787061z" fill="#2F2E41" p-id="18545"></path><path d="M1267.738713 936.131896l-110.957078-164.579061s168.033948 58.581704 148.969739 164.579061h-38.012661z" fill="#3F3D56" p-id="18546"></path><path d="M1272.092939 936.131896l110.965983-164.579061s-168.042852 58.581704-148.969739 164.579061h38.003756z" fill="#3366FF" p-id="18547"></path><path d="M294.983235 185.174817c0-9.055722-12.946922-16.401809-28.903513-16.401808l-0.943861 0.008904c-4.808348-14.736696-27.576765-25.893843-54.930922-25.893843-23.275965 0-43.221704 8.076243-51.627409 19.562852a73.300591 73.300591 0 0 0-19.019687-2.430887c-24.478052 0-44.316939 11.264-44.316939 25.154782 0 12.626365 16.375096 23.071165 37.718818 24.878748 15.511374 2.831583 39.740104 4.656974 66.960695 4.656974 46.240278 0 80.058991-8.8064 80.913809-15.42233 8.45913-2.858296 14.149009-8.102957 14.149009-14.113392zM993.360139 192.155826c0-9.064626-12.938017-16.410713-28.903513-16.410713-0.311652 0-0.623304 0-0.943861 0.017809-4.808348-14.7456-27.576765-25.911652-54.930922-25.911652-23.275965 0-43.221704 8.085148-51.618504 19.571756a73.300591 73.300591 0 0 0-19.028591-2.430887c-24.469148 0-44.316939 11.264-44.316939 25.163687 0 12.617461 16.384 23.062261 37.718817 24.878748 15.511374 2.831583 39.740104 4.64807 66.9696 4.648069 46.231374 0 80.050087-8.8064 80.904904-15.42233 8.468035-2.858296 14.149009-8.102957 14.149009-14.104487zM1383.058922 74.235548c0-15.903165-22.714991-28.796661-50.72807-28.796661l-1.656209 0.017809C1322.224417 19.589565 1282.270609 0 1234.258365 0c-40.862052 0-75.873948 14.184626-90.619548 34.34407a128.6144 128.6144 0 0 0-33.3824-4.274087c-42.963478 0-77.788383 19.776557-77.788382 44.165565 0 22.154017 28.743235 40.48807 66.203826 43.666922 27.229496 4.968626 69.747757 8.174191 117.546296 8.174191 81.145322 0 140.510609-15.457948 142.006539-27.078122 14.861357-5.022052 24.834226-14.229148 24.834226-24.762991z" fill="#F2F2F2" p-id="18548"></path><path d="M800.839235 404.346435c-28.885704-48.751304-86.042713-51.021913-86.042713-51.021913s-55.7056-7.114574-91.429844 67.129878c-33.302261 69.195687-79.266504 136.005009-7.399513 152.210922l12.973635-40.3456 8.040626 43.346365c10.24 0.730157 20.497809 0.908243 30.755617 0.525356 76.960278-2.484313 150.251965 0.721252 147.901218-26.855513-3.143235-36.6592 13.000348-98.090296-14.799026-144.9984zM611.862261 831.238678a113.530435 113.530435 0 0 1-3.6864 15.840835c-1.807583 5.075478-4.603548 9.76807-6.250852 14.896974-5.271374 16.348383 2.030191 34.575583 13.703791 47.193043a77.129461 77.129461 0 0 0 37.603061 22.296487c10.516035 2.644591 21.459478 3.027478 32.313878 3.392557 30.034365 1.015096 60.834504 1.923339 89.2928-7.711165 8.993391-3.116522 17.684035-7.061148 25.94727-11.771548 2.608974-1.237704 4.9152-3.045287 6.731687-5.289183 2.172661-3.089809 2.448696-7.087861 2.430887-10.863304-0.06233-12.706504-2.644591-25.359583-2.030192-38.057183 0.338365-7.034435 1.656209-14.06887 1.006192-21.076591a38.840765 38.840765 0 0 0-29.758331-33.489252c-8.067339-1.727443-16.44633-0.792487-24.665043 0-21.334817 2.048-42.758678 3.000765-64.200348 2.8672-21.895791-0.14247-43.658017-3.472696-65.446957-3.82887-6.446748-0.097948-6.313183 1.878817-8.370087 8.102957-1.887722 5.7344-3.428174 11.575652-4.63026 17.497043z" fill="#2F2E41" p-id="18549"></path><path d="M674.005704 517.306991c-1.050713 5.502887-2.19047 11.20167-5.502887 15.725079-3.811061 5.200139-10.017391 8.174191-14.113391 13.151721-6.170713 7.497461-6.526887 18.040209-6.5536 27.737044-0.026713 8.939965 0.160278 18.476522 5.146713 25.893843 3.241183 4.808348 8.174191 8.192 12.991444 11.433183 18.716939 12.590748 38.938713 25.413009 61.50233 25.822609 9.349565 0.178087 19.375861-2.226087 25.528765-9.260522 2.6624-3.312417 4.746017-7.034435 6.179618-11.014678a146.066922 146.066922 0 0 0 10.364661-44.52174c0.516452-7.185809 0.47193-14.585322-1.967861-21.370434-2.742539-7.63993-8.281043-13.917496-11.949635-21.156731a47.023861 47.023861 0 0 1-4.541218-27.861704 3.00967 3.00967 0 0 0-0.151373-2.012383 2.938435 2.938435 0 0 0-2.430887-0.979478l-44.744348-3.223374a97.520417 97.520417 0 0 1-12.43047-1.424696c-2.404174-0.480835-8.779687-3.900104-11.077008-2.99186-4.256278 1.682922-5.378226 21.486191-6.250853 26.054121z" fill="#FFB8B8" p-id="18550"></path><path d="M674.005704 517.306991c-1.050713 5.502887-2.19047 11.20167-5.502887 15.725079-3.811061 5.200139-10.017391 8.174191-14.113391 13.151721-6.170713 7.497461-6.526887 18.040209-6.5536 27.737044-0.026713 8.939965 0.160278 18.476522 5.146713 25.893843 3.241183 4.808348 8.174191 8.192 12.991444 11.433183 18.716939 12.590748 38.938713 25.413009 61.50233 25.822609 9.349565 0.178087 19.375861-2.226087 25.528765-9.260522 2.6624-3.312417 4.746017-7.034435 6.179618-11.014678a146.066922 146.066922 0 0 0 10.364661-44.52174c0.516452-7.185809 0.47193-14.585322-1.967861-21.370434-2.742539-7.63993-8.281043-13.917496-11.949635-21.156731a47.023861 47.023861 0 0 1-4.541218-27.861704 3.00967 3.00967 0 0 0-0.151373-2.012383 2.938435 2.938435 0 0 0-2.430887-0.979478l-44.744348-3.223374a97.520417 97.520417 0 0 1-12.43047-1.424696c-2.404174-0.480835-8.779687-3.900104-11.077008-2.99186-4.256278 1.682922-5.378226 21.486191-6.250853 26.054121z" fill="#000000" opacity=".1" p-id="18551"></path><path d="M716.8 523.290713c36.258504 0 65.651757-29.34873 65.651757-65.544904 0-36.205078-29.393252-65.553809-65.651757-65.553809s-65.651757 29.34873-65.651757 65.553809c0 36.196174 29.393252 65.544904 65.651757 65.544904z" fill="#FFB8B8" p-id="18552"></path><path d="M683.2128 604.560696c3.428174 3.570643 7.052243 7.10567 11.53113 9.207095a36.276313 36.276313 0 0 0 14.407235 2.733635c11.842783 0.329461 24.665043-1.834296 32.892661-10.329043 10.613983-10.952348 10.266713-28.60967 18.583374-41.387409 0.667826-1.157565 1.584974-2.154852 2.671304-2.929531a8.699548 8.699548 0 0 1 4.567931-1.041808c10.50713-0.097948 19.651896 6.704974 27.91513 13.187339 3.695304 2.902817 7.488557 5.912487 9.821496 9.990678 1.6384 3.187757 2.760348 6.607026 3.312417 10.133148 4.096 19.981357 5.431652 40.40793 6.749496 60.754365 0.721252 11.237287 1.451409 22.492383 1.397983 33.747478-0.178087 37.113322-8.815304 73.603339-17.408 109.701566-1.104139 4.64807-2.617878 9.848209-6.856348 12.0832-1.887722 0.845913-3.917913 1.335652-5.983722 1.451408-24.602713 2.885009-49.249948 5.778922-74.021844 6.161809-9.661217 0.14247-19.322435-0.089043-28.983652-0.712348a15.609322 15.609322 0 0 1-4.879582-0.845913 13.766122 13.766122 0 0 1-5.3248-4.514504c-13.401043-16.85593-14.19353-40.158609-14.104487-61.680418 0.213704-52.615791 2.092522-105.187061 5.645356-157.722713 0.293843-4.336417 0.356174-9.598887-2.760348-13.009252 5.627548 9.002296 13.463374 17.336765 20.836174 25.021218z" fill="#D0CDE1" p-id="18553"></path><path d="M669.313113 528.873739c-2.226087 4.006957-18.565565 13.962017-21.726609 17.274435-17.630609 18.565565-49.810922 17.871026-65.936695 37.74553-5.67207 6.989913-8.619409 15.778504-10.783166 24.51367-3.072 12.359235-4.7104 25.831513 0.427409 37.487304 4.941913 11.210574 15.351096 18.966261 22.412244 28.974748 7.755687 10.987965 11.246191 24.344487 14.585321 37.371548 2.466504 9.616696 4.959722 19.473809 3.998053 29.357635-1.095235 11.237287-6.544696 21.530713-9.759166 32.349495-3.205565 10.827687-3.766539 23.721183 3.668592 32.233739 5.458365 6.241948 14.024348 8.726261 22.216347 10.11534 10.489322 1.567165 21.058783 2.493217 31.663861 2.751443 9.367374 0.4096 19.678609 0.489739 26.873322-5.502887 5.680974-4.719304 8.147478-12.394852 8.468035-19.767652 0.320557-7.381704-1.219896-14.692174-2.181565-22.011548-0.997287-7.586504-1.380174-15.244243-1.691826-22.884174a1422.594226 1422.594226 0 0 1-0.596592-102.996591c0.213704-7.150191 0.480835-14.380522-1.041808-21.370435-2.012383-9.189287-6.981009-17.399096-11.130435-25.840417-8.236522-16.766887-12.136626-33.03513-10.863305-51.671931 1.255513-18.387478 9.287235-32.394017 1.397983-18.129252zM761.499826 530.271722c3.383652 3.463791 14.852452 4.603548 19.144348 6.838539 4.042574 1.869913 8.263235 3.321322 12.590748 4.354226a163.528348 163.528348 0 0 1 44.218991 20.266296c2.840487 1.656209 5.342609 3.811061 7.390609 6.375513 2.404174 3.33913 3.285704 7.506365 4.096 11.53113 2.101426 10.409183 4.220661 20.934122 3.739826 31.5392-0.498643 11.255096-3.8912 22.162922-7.257044 32.919374l-12.590747 40.176417c-9.394087 29.989843-18.850504 60.282435-21.495096 91.590122a215.129043 215.129043 0 0 0 1.941148 52.028104c0.26713 1.727443 0.507548 3.704209-0.641113 5.039861a4.968626 4.968626 0 0 1-3.080905 1.415792c-6.072765 0.943861-11.949635-2.145948-17.452521-4.888487a193.527096 193.527096 0 0 0-53.292522-17.408 123.645774 123.645774 0 0 0 16.553182-34.076939c2.119235-7.702261 3.784348-15.529183 4.99534-23.42734l5.85906-33.818713c2.377461-12.359235 4.060383-24.84313 5.022053-37.39826a46.747826 46.747826 0 0 0-0.8192-14.077774 68.207304 68.207304 0 0 0-5.342609-12.706505c-9.652313-20.043687-14.175722-42.918957-10.38247-64.823652 1.665113-9.598887 4.897391-19.197774 3.543931-28.841183-1.29113-9.260522 0.053426-16.473043-2.332939-25.644521-9.776974-37.647583-0.765774-13.490087 5.59193-6.9632z" fill="#3366FF" p-id="18554"></path><path d="M581.480626 615.584278c-4.398748 9.118052-11.753739 16.882643-14.255861 26.686331a58.189913 58.189913 0 0 0-1.246608 13.944208c-0.053426 7.061148-0.089043 14.264765 2.074713 20.978644 1.397983 4.318609 3.668591 8.307757 5.306991 12.55513 2.279513 5.912487 3.294609 12.252383 2.982956 18.583374-0.445217 8.779687-3.428174 17.310052-3.650782 26.089739-0.373983 13.828452 6.028243 26.819896 12.270191 39.161322a28.787757 28.787757 0 0 1 30.150122-17.808696 28.850087 28.850087 0 0 1 11.753739 4.113809c1.647304-1.522643 1.816487-4.015861 1.887722-6.259756 0.454122-16.027826 0.899339-32.064557 1.335652-48.101287 0.67673-24.798609 1.317843-49.935583-4.398748-74.07527-2.582261-10.898922-6.589217-21.762226-13.953113-30.212452-3.873391-4.452174-17.025113-16.1792-23.382817-11.192765-2.858296 2.243896-2.19047 8.343374-2.644592 11.442087a48.493078 48.493078 0 0 1-4.229565 14.095582zM853.971478 589.316452c2.074713 6.464557 2.199374 13.383235 2.243896 20.177252a1071.727304 1071.727304 0 0 1-0.55207 41.583305c-0.231513 7.087861-0.55207 14.282574-2.706921 21.040974-1.424696 4.461078-3.615165 8.646122-5.075479 13.089391-4.398748 13.329809-1.994574 27.781565-1.620591 41.805913 0.26713 4.541217-0.124661 9.082435-1.157565 13.5168-2.31513 8.690643-8.548174 15.716174-12.9024 23.596522-4.131617 7.479652-6.624835 15.867548-11.566748 22.848556-4.933009 6.981009-13.481183 12.501704-21.762226 10.364661-6.277565-1.620591-10.738643-7.168-13.819548-12.866783a63.01607 63.01607 0 0 1-6.535791-40.933286c3.089809-17.016209 13.1072-32.117983 16.713461-49.036244 4.959722-23.240348-2.573357-47.210852-2.350748-70.967652a34.272835 34.272835 0 0 1 1.49593-10.99687c1.896626-5.431652 5.965913-9.759165 9.723548-14.113391a178.131478 178.131478 0 0 0 13.062678-17.114157c2.689113-4.006957 6.3488-14.318191 11.112626-15.173008 10.6496-1.914435 23.053357 14.959304 25.697948 23.178017z" fill="#3366FF" p-id="18555"></path><path d="M526.220243 820.90073a64.894887 64.894887 0 0 0-18.0224-1.914434 45.038191 45.038191 0 0 0-32.857043 17.06073 44.886817 44.886817 0 0 0-8.904348 35.902331c1.469217 6.785113 3.873391 13.347617 7.141287 19.482713 4.781635 9.68793 10.50713 19.349148 19.358052 25.564382 5.18233 3.62407 11.174957 5.894678 17.096348 8.120765l46.605357 17.532661c6.856348 2.573357 13.712696 5.155617 20.640278 7.550887a404.284104 404.284104 0 0 0 107.796035 21.397148c11.192765 0.667826 22.545809 0.845913 33.471443-1.691826 2.582261-0.605496 5.351513-1.504835 6.856348-3.704209 0.890435-1.540452 1.406887-3.267896 1.522643-5.048765l2.876105-20.043687c0.400696-2.831583 0.792487-5.79673-0.249322-8.45913-1.308939-3.365843-4.603548-5.485078-7.746783-7.283757-30.639861-17.577183-66.426435-27.274017-92.213426-51.386991-6.063861-5.680974-11.148243-14.68327-18.521043-18.538852-8.370087-4.372035-18.218296-6.865252-26.864417-10.898922-18.90393-8.815304-37.487304-18.939548-57.976209-23.641044z" fill="#2F2E41" p-id="18556"></path><path d="M572.754365 847.93433c16.473043 5.146713 86.033809 40.862052 97.947826 53.32814-1.593878 0.578783-55.812452-29.767235-57.433043-30.24807-14.790122-4.434365-29.669287-8.895443-43.711444-15.377809-2.822678-1.308939-18.342957-7.444035-17.648417-10.996869 0.801391-4.015861 17.924452 2.377461 20.845078 3.294608z" fill="#000000" opacity=".1" p-id="18557"></path><path d="M778.284522 981.989287a3.82887 3.82887 0 0 0 2.608974-0.765774 3.971339 3.971339 0 0 0 0.8192-3.000765l-0.080139-27.309635c-7.862539-3.739826-16.660035-4.941913-25.297253-6.099478l-40.292174-5.378226c0.917148 0.124661-6.304278 17.336765-5.200139 19.634087 1.958957 4.042574 16.882643 7.631026 21.0944 9.545461 14.638748 6.642643 29.856278 13.953113 46.347131 13.37433z" fill="#FFB8B8" p-id="18558"></path><path d="M651.860591 950.815165c-7.613217 1.210991-16.099061 2.279513-21.032069 8.192-6.241948 7.506365-3.588452 18.681322-0.605496 27.968557 0.445217 1.887722 1.335652 3.632974 2.591165 5.093287 2.039096 2.003478 5.155617 2.297322 8.005009 2.475408 6.945391 0.445217 14.318191 0.783583 20.390957-2.608974 2.742539-1.816487 5.38713-3.775443 7.915965-5.885773a50.950678 50.950678 0 0 1 14.558608-6.642644 147.384765 147.384765 0 0 1 29.22407-6.010435c3.909009-0.178087 7.773496-0.863722 11.513322-2.030191 3.650783-1.37127 7.034435-4.104904 8.102956-7.862539 1.406887-4.959722-1.487026-10.017391-4.256278-14.371618-3.445983-5.422748-7.10567-11.130435-12.252383-15.128486-7.506365-5.823443-11.219478-1.353461-18.788174 2.37746a159.432348 159.432348 0 0 1-45.367652 14.433948z" fill="#FFB8B8" p-id="18559"></path><path d="M631.977183 957.662609l-48.306087-14.255861c-5.87687-1.736348-11.851687-3.490504-17.986783-3.4816-6.117287 0-12.528417 2.012383-16.499756 6.669356-3.74873 4.389843-4.817252 10.391374-5.752209 16.081253l-2.003478 12.172243c-1.015096 6.188522-2.030191 12.4928-1.113044 18.69913 0.908243 6.197426 4.078191 12.394852 9.589983 15.404522 6.687165 3.641878 14.879165 1.861009 22.349913 0.338365a243.320209 243.320209 0 0 1 45.768348-4.906295c5.787826-0.071235 11.842783 0.008904 16.962782-2.698018 6.072765-3.21447 9.705739-10.008487 10.329044-16.847026 0.952765-10.400278-2.51993-23.988313-13.338713-27.176069zM797.268591 945.232139c6.259757-1.095235 11.789357-4.64807 17.790887-6.740591 8.450226-2.956243 17.603896-2.956243 26.552765-2.920626 3.285704 0.008904 6.776209 0.080139 9.518748 1.896626 3.935722 2.626783 4.950817 7.871443 5.618644 12.546226l4.042574 28.244591c0.75687 5.315896 1.513739 10.765357 0.329461 16.001113-1.184278 5.235757-4.754922 10.284522-9.955061 11.629079-6.322087 1.6384-12.510609-2.386365-18.476522-5.030957-14.905878-6.61593-32.233739-4.933009-47.78073-9.874922-2.885009-0.917148-5.965913-2.31513-7.150192-5.102191a11.584557 11.584557 0 0 1-0.560974-4.879583c0.26713-9.082435-1.647304-21.477287 1.086331-30.150121 2.466504-7.809113 11.994157-5.618643 18.984069-5.618644z" fill="#2F2E41" p-id="18560"></path><path d="M899.499409 809.538783a84.021426 84.021426 0 0 1 29.55353-2.021287c7.898157 0.872626 16.03673 3.063096 21.806748 8.521461 7.016626 6.651548 9.27833 16.927165 9.465322 26.588382a83.015235 83.015235 0 0 1-18.075826 53.034296 48.208139 48.208139 0 0 1-10.337948 9.937252c-4.229565 2.635687-8.74407 4.808348-13.445565 6.464556l-104.376766 41.111374c-27.461009 10.818783-55.019965 21.664278-83.656347 28.787757a6.437843 6.437843 0 0 1-5.05767 0.258226 6.500174 6.500174 0 0 1-3.713113-3.428174 215.877009 215.877009 0 0 1-22.884174-41.788104 2.80487 2.80487 0 0 1 0.124661-3.713113 2.840487 2.840487 0 0 1 1.121948-0.730157l73.825948-42.349078c5.289183-3.036383 10.640696-6.117287 15.030539-10.337948 3.187757-3.089809 5.805635-6.722783 7.711165-10.729739 1.531548-3.187757 1.674017-10.720835 3.632974-13.089391 1.914435-2.306226 8.45913-2.493217 11.486608-3.392557 4.256278-1.308939 8.432417-2.885009 12.501705-4.719304 16.508661-7.381704 31.218643-18.102539 47.050574-26.739757 8.877635-5.066574 18.36967-8.993391 28.235687-11.664695z" fill="#2F2E41" p-id="18561"></path><path d="M857.648974 841.167026c-12.688696 9.509843-29.108313 18.253913-41.672348 28.021983-4.3008 3.330226-75.820522 43.47993-76.826713 48.813634 11.727026 1.967861 86.434504-50.220522 97.119722-55.42066 10.685217-5.209043 20.168348-12.55513 29.562435-19.838887 2.386365-1.869913 12.528417-7.444035 5.65426-9.527653-3.864487-1.157565-10.979061 6.054957-13.837356 7.951583z" fill="#000000" opacity=".1" p-id="18562"></path><path d="M788.0704 399.644939l-56.471374-29.535722-77.984278 12.074296-16.134678 71.163548 40.158608-1.540452 11.219479-26.143166v25.706853l18.538852-0.712348 10.756452-41.618922 6.722782 44.308035 65.892174-1.344557-2.698017-52.357565z" fill="#2F2E41" p-id="18563"></path><path d="M775.461843 545.613913H653.944209V692.045913h121.517634V545.605009z" fill="#3F3D56" p-id="18564"></path><path d="M596.252939 800.322783c2.795965 4.15833 6.054957 8.218713 10.542748 10.462608a20.62247 20.62247 0 0 0 18.120348-0.480834 31.877565 31.877565 0 0 0 13.080487-13.089392c6.135096-10.827687 7.408417-23.774609 6.642643-36.187269-0.765774-12.412661-3.41927-24.63833-4.594643-37.015374-0.854817-8.993391-0.926052-18.058017-0.997287-27.095931a9.002296 9.002296 0 0 1 1.139756-5.476174c1.362365-1.852104 3.855583-2.368557 6.054957-3.027478 12.385948-3.668591 20.613565-15.262052 26.508243-26.739756 3.935722-7.666643 7.354991-16.045635 6.589218-24.629426-0.75687-8.583791-6.927583-17.229913-15.511374-18.10254-7.078957-0.730157-13.614748 3.766539-18.716939 8.708453a80.094609 80.094609 0 0 0-23.498574 46.890295c-1.121948 8.726261-0.801391 17.692939-3.178852 26.160974-5.075478 18.093635-20.95193 29.179548-28.867896 45.456696-8.717357 17.933357-3.900104 38.288696 6.687165 54.156243zM829.920835 731.216139a34.183791 34.183791 0 0 1-19.18887 18.423096 26.552765 26.552765 0 0 1-16.695652 1.015095 18.512139 18.512139 0 0 1-12.22567-10.91673 29.366539 29.366539 0 0 1-1.371269-8.200904c-0.801391-12.198957-0.489739-24.771896 3.944626-36.160557 1.709635-4.398748 4.024765-8.565983 5.369322-13.080487 1.335652-5.217948 2.012383-10.578365 2.021287-15.965495l1.460313-33.275548a21.637565 21.637565 0 0 0-0.498644-7.212522c-1.451409-4.817252-5.965913-7.951583-10.09753-10.818783-9.981774-6.945391-19.856696-15.030539-24.691757-26.178782a18.334052 18.334052 0 0 1-1.709634-10.836592c1.362365-6.607026 8.04953-10.890017 14.647652-12.332521a32.803617 32.803617 0 0 1 34.477634 14.157913c2.404174 3.704209 4.042574 7.853635 4.799444 12.198956 0.650017 3.757635 0.641113 7.595409 1.024 11.397565 0.801391 8.040626 3.365843 15.796313 4.968626 23.721183 3.944626 19.527235 1.896626 39.713391 5.79673 59.231722 3.258991 16.32167 15.546991 26.980174 7.969392 44.833391z" fill="#FFB8B8" p-id="18565"></path><path d="M77.96647 934.76953l-2.795966-0.06233A645.974817 645.974817 0 0 1 85.089948 842.262261c12.074296-65.39353 32.162504-108.330296 59.694748-127.634922l1.602782 2.279513c-64.316104 45.100522-68.385391 216.135235-68.421008 217.862678zM112.889322 934.101704l-2.795965-0.06233c0.053426-3.089809 1.807583-75.891757 30.506295-96.015583l1.602783 2.288418c-27.541148 19.31353-29.304209 93.04153-29.322018 93.789495z" fill="#2F2E41" p-id="18566"></path><path d="M162.281739 717.156174a13.953113 13.953113 0 1 0-13.962017-13.944209c0 7.702261 6.250852 13.944209 13.962017 13.944209zM155.363061 837.106643a13.953113 13.953113 0 1 0-13.962018-13.944208c0 7.702261 6.250852 13.944209 13.962018 13.944208z" fill="#3366FF" p-id="18567"></path><path d="M106.371339 725.526261c2.626783 16.740174-4.211757 31.708383-4.211756 31.708382s-11.103722-12.163339-13.7216-28.903513c-2.626783-16.740174 4.211757-31.726191 4.211756-31.726191s11.103722 12.172243 13.7216 28.921322zM152.032835 766.183513c-16.054539 5.493983-32.020035 1.380174-32.020035 1.380174s10.070817-13.035965 26.125357-18.529948c16.054539-5.502887 32.01113-1.380174 32.01113-1.380174s-10.061913 13.027061-26.116452 18.529948zM152.549287 872.403478a43.551165 43.551165 0 0 1-22.438957 0.979479 39.624348 39.624348 0 0 1 40.746296-13.962018 43.47993 43.47993 0 0 1-18.307339 12.982539z" fill="#2F2E41" p-id="18568"></path></svg>